<svg width="122" height="122" viewBox="0 0 122 122" fill="none" xmlns="http://www.w3.org/2000/svg">
<path d="M7.625 46.2583C7.625 32.7354 7.625 25.9739 10.2567 20.8089C12.5717 16.2655 16.2655 12.5717 20.8089 10.2567C25.9739 7.625 32.7354 7.625 46.2583 7.625H75.7417C89.2646 7.625 96.0261 7.625 101.191 10.2567C105.734 12.5717 109.428 16.2655 111.743 20.8089C114.375 25.9739 114.375 32.7354 114.375 46.2583V75.7417C114.375 89.2646 114.375 96.0261 111.743 101.191C109.428 105.734 105.734 109.428 101.191 111.743C96.0261 114.375 89.2646 114.375 75.7417 114.375H46.2583C32.7354 114.375 25.9739 114.375 20.8089 111.743C16.2655 109.428 12.5717 105.734 10.2567 101.191C7.625 96.0261 7.625 89.2646 7.625 75.7417V46.2583Z" fill="#00005B"/>
<path d="M52.5718 74.5872H36.0296L32.6639 85.331C32.5705 85.7294 32.2036 86.0116 31.8046 85.9921H23.4261C22.9483 85.9921 22.7812 85.7228 22.9248 85.1842L37.247 43.0531C37.3903 42.6125 37.5334 42.1818 37.6768 41.6182C37.8641 40.6383 37.96 39.6423 37.9632 38.6437C37.9222 38.3486 38.1768 38.0874 38.4645 38.1295H49.8505C50.1841 38.1295 50.3751 38.2519 50.4235 38.4968L66.6794 85.2575C66.8226 85.7476 66.6793 85.9924 66.2496 85.9921H56.9401C56.6135 86.0292 56.3018 85.8053 56.224 85.478L52.5718 74.5872ZM38.6076 65.5282H49.9222C48.0633 59.1759 45.9654 52.907 44.265 46.5052C42.3382 53.146 40.559 59.3046 38.6076 65.5282Z" fill="#9999FF"/>
<path d="M78.7694 70.4386C79.4277 75.894 84.0087 78.4948 89.0815 78.384C91.9418 78.3277 94.9988 77.8838 97.6715 76.8021C97.9098 76.6071 98.0296 76.7287 98.0296 77.1694V84.1469C98.0522 84.51 97.9005 84.8342 97.5998 85.0282C94.2779 86.5374 90.4644 86.9924 86.8614 86.9347C76.1185 86.9347 68.7407 79.3652 68.7438 68.3524C68.7157 57.916 75.4863 49.1114 86.002 49.1114C94.9159 48.8803 101.087 56.0172 101.112 64.9004C101.112 66.5184 101.022 68.1418 100.826 69.7479C100.788 70.0788 100.506 70.3356 100.181 70.3355C93.0619 70.3355 85.908 70.4386 78.7694 70.4386ZM78.7694 63.7477C82.7369 63.7477 86.7274 63.888 90.6925 63.7109C91.2886 63.6499 91.7311 63.537 91.7311 62.9172C91.6483 59.6239 88.8691 56.9155 85.6441 57.0414C81.7475 56.7999 79.2537 60.0891 78.7694 63.7477Z" fill="#9999FF"/>
</svg>
