<svg width="122" height="122" viewBox="0 0 122 122" fill="none" xmlns="http://www.w3.org/2000/svg">
<path d="M7.625 46.2583C7.625 32.7354 7.625 25.9739 10.2567 20.8089C12.5717 16.2655 16.2655 12.5717 20.8089 10.2567C25.9739 7.625 32.7354 7.625 46.2583 7.625H75.7417C89.2646 7.625 96.0261 7.625 101.191 10.2567C105.734 12.5717 109.428 16.2655 111.743 20.8089C114.375 25.9739 114.375 32.7354 114.375 46.2583V75.7417C114.375 89.2646 114.375 96.0261 111.743 101.191C109.428 105.734 105.734 109.428 101.191 111.743C96.0261 114.375 89.2646 114.375 75.7417 114.375H46.2583C32.7354 114.375 25.9739 114.375 20.8089 111.743C16.2655 109.428 12.5717 105.734 10.2567 101.191C7.625 96.0261 7.625 89.2646 7.625 75.7417V46.2583Z" fill="#330000"/>
<path d="M59.3545 74.7107H42.8123L39.4466 85.4341C39.3532 85.8326 38.9863 86.1147 38.5872 86.0952H30.2087C29.7309 86.0952 29.5638 85.8259 29.7074 85.2873L44.0296 42.9814C44.173 42.5408 44.3162 42.0389 44.4594 41.4757C44.6468 40.4957 44.7427 39.4997 44.7459 38.5012C44.7048 38.2061 44.9641 37.9456 45.2472 37.9869H56.6332C56.9668 37.9869 57.1578 38.1094 57.2062 38.3542L73.4621 85.3606C73.6053 85.8507 73.462 86.0955 73.0323 86.0952H63.7228C63.3962 86.1323 63.0844 85.9084 63.0067 85.5811L59.3545 74.7107ZM45.3903 65.4564H56.7049C54.846 59.1041 52.748 52.8353 51.0477 46.4335C49.2132 52.8461 47.2116 59.2328 45.3903 65.4564Z" fill="#FF9A00"/>
<path d="M83.1287 45.7722C82.3983 45.8023 81.67 45.6739 80.9912 45.3955C80.3125 45.117 79.6988 44.6948 79.1901 44.1564C78.6828 43.5946 78.2888 42.9355 78.0307 42.2171C77.7726 41.4986 77.6555 40.7349 77.6861 39.9698C77.6601 39.2124 77.7901 38.4578 78.0678 37.7554C78.3454 37.053 78.7644 36.4185 79.2974 35.8935C79.8252 35.3739 80.4482 34.9668 81.1304 34.6957C81.8126 34.4247 82.5405 34.2951 83.2718 34.3144C84.9906 34.3144 86.3393 34.8407 87.318 35.8935C87.812 36.4406 88.1959 37.0822 88.4478 37.7817C88.6997 38.4812 88.8146 39.2248 88.7859 39.9698C88.8158 40.7379 88.695 41.5042 88.4305 42.2234C88.166 42.9426 87.7633 43.5999 87.2463 44.1564C86.7059 44.7027 86.0611 45.1283 85.3524 45.4064C84.6438 45.6845 83.8866 45.809 83.1287 45.7722ZM78.1874 85.3604V50.2524C78.1874 49.8118 78.3776 49.5914 78.7603 49.5914H87.5686C87.9502 49.5914 88.1412 49.8117 88.1415 50.2524V85.3604C88.1415 85.8505 87.9505 86.0953 87.5686 86.0949H78.832C78.4024 86.0949 78.1875 85.8501 78.1874 85.3604Z" fill="#FF9A00"/>
</svg>
