<svg width="122" height="122" viewBox="0 0 122 122" fill="none" xmlns="http://www.w3.org/2000/svg">
<path d="M7.625 46.2583C7.625 32.7354 7.625 25.9739 10.2567 20.8089C12.5717 16.2655 16.2655 12.5717 20.8089 10.2567C25.9739 7.625 32.7354 7.625 46.2583 7.625H75.7417C89.2646 7.625 96.0261 7.625 101.191 10.2567C105.734 12.5717 109.428 16.2655 111.743 20.8089C114.375 25.9739 114.375 32.7354 114.375 46.2583V75.7417C114.375 89.2646 114.375 96.0261 111.743 101.191C109.428 105.734 105.734 109.428 101.191 111.743C96.0261 114.375 89.2646 114.375 75.7417 114.375H46.2583C32.7354 114.375 25.9739 114.375 20.8089 111.743C16.2655 109.428 12.5717 105.734 10.2567 101.191C7.625 96.0261 7.625 89.2646 7.625 75.7417V46.2583Z" fill="#001E36"/>
<path d="M30.5 85.8432V38.9005C30.5 38.5812 30.6334 38.3987 30.9448 38.3987C35.5413 38.3987 40.1356 38.125 44.7333 38.125C52.1937 38.125 60.2717 40.6759 63.1032 48.4807C63.7704 50.3967 64.1263 52.3583 64.1263 54.4112C64.1263 58.3345 63.2367 61.5735 61.4575 64.1282C56.4876 71.2645 47.8736 71.1536 40.152 71.1536V85.7976C40.2124 86.2311 39.8429 86.4362 39.4848 86.4362H31.0338C30.6779 86.4362 30.5 86.2538 30.5 85.8432ZM40.1965 47.2033V62.5315C43.2581 62.7558 46.4619 62.7802 49.4037 61.8016C52.6512 60.8648 54.4298 58.0535 54.4298 54.6849C54.5201 51.8145 52.9559 49.0604 50.2932 48.0245C47.387 46.816 43.3337 46.7437 40.1965 47.2033Z" fill="#31A8FF"/>
<path d="M91.8685 59.5031C90.5227 58.7939 89.0893 58.275 87.6076 57.9607C85.7035 57.5126 78.1935 55.9435 78.1907 59.8703C78.2574 62.0626 81.7373 63.1367 83.275 63.763C88.6729 65.6163 94.7814 68.9289 94.6613 75.5881C94.8264 83.8781 86.7943 87.1921 79.9093 87.1929C76.325 87.23 72.5911 86.6748 69.3108 85.1363C68.9977 84.9705 68.7961 84.616 68.8095 84.2549V76.3226C68.7742 76.0045 69.1155 75.7266 69.3824 75.9554C72.5964 77.8991 76.4061 78.8428 80.1241 78.8932C81.7654 78.8932 85.0185 78.7341 84.9938 76.3226C84.9938 74.0083 81.1024 72.9443 79.5512 72.3564C77.3027 71.5537 75.1707 70.4418 73.2136 69.0513C70.4786 67.1004 68.7628 63.9725 68.8095 60.5313C68.7935 52.7257 76.187 49.2221 82.8455 49.2204C85.9582 49.1948 89.3008 49.4253 92.1984 50.6894C92.6151 50.812 92.7015 51.2509 92.6996 51.6442V59.0624C92.7261 59.5229 92.2147 59.6797 91.8685 59.5031Z" fill="#31A8FF"/>
</svg>
