<svg width="122" height="122" viewBox="0 0 122 122" fill="none" xmlns="http://www.w3.org/2000/svg">
<path d="M7.625 46.2583C7.625 32.7354 7.625 25.9739 10.2567 20.8089C12.5717 16.2655 16.2655 12.5717 20.8089 10.2567C25.9739 7.625 32.7354 7.625 46.2583 7.625H75.7417C89.2646 7.625 96.0261 7.625 101.191 10.2567C105.734 12.5717 109.428 16.2655 111.743 20.8089C114.375 25.9739 114.375 32.7354 114.375 46.2583V75.7417C114.375 89.2646 114.375 96.0261 111.743 101.191C109.428 105.734 105.734 109.428 101.191 111.743C96.0261 114.375 89.2646 114.375 75.7417 114.375H46.2583C32.7354 114.375 25.9739 114.375 20.8089 111.743C16.2655 109.428 12.5717 105.734 10.2567 101.191C7.625 96.0261 7.625 89.2646 7.625 75.7417V46.2583Z" fill="#242424"/>
<path fill-rule="evenodd" clip-rule="evenodd" d="M61 62.9062C61 55.5367 66.9742 49.5625 74.3438 49.5625C81.7133 49.5625 87.6875 55.5367 87.6875 62.9062C87.6875 70.2758 81.7133 76.25 74.3438 76.25C66.9742 76.25 61 70.2758 61 62.9062Z" fill="#1ABCFE"/>
<path fill-rule="evenodd" clip-rule="evenodd" d="M34.3125 89.5938C34.3125 82.2242 40.2867 76.25 47.6562 76.25H61V89.5938C61 96.9633 55.0258 102.938 47.6562 102.938C40.2867 102.938 34.3125 96.9633 34.3125 89.5938Z" fill="#0ACF83"/>
<path fill-rule="evenodd" clip-rule="evenodd" d="M61 22.875V49.5625H74.3438C81.7133 49.5625 87.6875 43.5883 87.6875 36.2188C87.6875 28.8492 81.7133 22.875 74.3438 22.875H61Z" fill="#FF7262"/>
<path fill-rule="evenodd" clip-rule="evenodd" d="M34.3125 36.2188C34.3125 43.5883 40.2867 49.5625 47.6562 49.5625H61V22.875H47.6562C40.2867 22.875 34.3125 28.8492 34.3125 36.2188Z" fill="#F24E1E"/>
<path fill-rule="evenodd" clip-rule="evenodd" d="M34.3125 62.9062C34.3125 70.2758 40.2867 76.25 47.6562 76.25H61V49.5625H47.6562C40.2867 49.5625 34.3125 55.5367 34.3125 62.9062Z" fill="#A259FF"/>
</svg>
