<svg width="52" height="53" viewBox="0 0 52 53" fill="none" xmlns="http://www.w3.org/2000/svg">
<path fill-rule="evenodd" clip-rule="evenodd" d="M25.7083 52.5627C39.7225 52.5627 51.0833 41.202 51.0833 27.1877C51.0833 13.1735 39.7225 1.81274 25.7083 1.81274C11.694 1.81274 0.333252 13.1735 0.333252 27.1877C0.333252 31.7387 1.53131 36.0099 3.62924 39.703L0.333252 52.5627L13.5914 49.4884C17.192 51.4489 21.32 52.5627 25.7083 52.5627ZM25.7083 48.6589C37.5664 48.6589 47.1794 39.0459 47.1794 27.1877C47.1794 15.3296 37.5664 5.71659 25.7083 5.71659C13.8501 5.71659 4.2371 15.3296 4.2371 27.1877C4.2371 31.7662 5.67016 36.01 8.11221 39.495L6.18902 46.707L13.5281 44.8722C16.989 47.2604 21.1853 48.6589 25.7083 48.6589Z" fill="#BFC8D0"/>
<path d="M47.4583 25.3752C47.4583 37.3874 37.7204 47.1252 25.7083 47.1252C21.1266 47.1252 16.8757 45.7086 13.3699 43.2894L5.93552 45.148L7.88369 37.8424C5.40993 34.3121 3.95825 30.0132 3.95825 25.3752C3.95825 13.3631 13.6961 3.62524 25.7083 3.62524C37.7204 3.62524 47.4583 13.3631 47.4583 25.3752Z" fill="url(#paint0_linear_67_61)"/>
<path fill-rule="evenodd" clip-rule="evenodd" d="M25.7083 50.7502C39.7225 50.7502 51.0833 39.3895 51.0833 25.3752C51.0833 11.361 39.7225 0.000244141 25.7083 0.000244141C11.694 0.000244141 0.333252 11.361 0.333252 25.3752C0.333252 29.9262 1.53131 34.1974 3.62924 37.8905L0.333252 50.7502L13.5914 47.6759C17.192 49.6364 21.32 50.7502 25.7083 50.7502ZM25.7083 46.8464C37.5664 46.8464 47.1794 37.2334 47.1794 25.3752C47.1794 13.5171 37.5664 3.90409 25.7083 3.90409C13.8501 3.90409 4.2371 13.5171 4.2371 25.3752C4.2371 29.9537 5.67016 34.1975 8.11221 37.6825L6.18902 44.8945L13.5281 43.0597C16.989 45.4479 21.1853 46.8464 25.7083 46.8464Z" fill="white"/>
<path d="M19.3645 13.594C18.7612 12.3822 17.8357 12.4895 16.9007 12.4895C15.2298 12.4895 12.6243 14.491 12.6243 18.216C12.6243 21.2688 13.9695 24.6106 18.5025 29.6097C22.8772 34.4341 28.6253 36.9298 33.3972 36.8448C38.1692 36.7599 39.151 32.6534 39.151 31.2667C39.151 30.652 38.7696 30.3453 38.5068 30.262C36.8806 29.4816 33.8814 28.0274 33.199 27.7542C32.5166 27.481 32.1602 27.8505 31.9387 28.0516C31.3199 28.6413 30.0931 30.3794 29.6731 30.7703C29.2531 31.1612 28.6269 30.9634 28.3663 30.8156C27.4074 30.4308 24.8073 29.2743 22.7348 27.2652C20.1717 24.7806 20.0212 23.9257 19.5383 23.1648C19.152 22.556 19.4355 22.1825 19.5769 22.0193C20.1292 21.3821 20.8917 20.3983 21.2337 19.9094C21.5756 19.4206 21.3042 18.6783 21.1413 18.216C20.4407 16.2278 19.8472 14.5634 19.3645 13.594Z" fill="white"/>
<defs>
<linearGradient id="paint0_linear_67_61" x1="44.7395" y1="9.06274" x2="3.95825" y2="47.1252" gradientUnits="userSpaceOnUse">
<stop stop-color="#5BD066"/>
<stop offset="1" stop-color="#27B43E"/>
</linearGradient>
</defs>
</svg>
