<svg width="52" height="51" viewBox="0 0 52 51" fill="none" xmlns="http://www.w3.org/2000/svg">
<ellipse cx="25.8125" cy="25.3752" rx="25.8125" ry="25.375" fill="#105DFB"/>
<path fill-rule="evenodd" clip-rule="evenodd" d="M8.99002 36.177V14.0354H19.4022C22.7466 14.0354 25.4577 16.7006 25.4577 19.9883C25.4577 22.0775 24.8043 23.3717 22.4082 24.6993C25.2755 25.9836 26.0718 27.7636 26.0718 30.2465C26.0718 33.6052 23.0366 36.177 19.62 36.177H8.99002ZM13.396 17.7006V23.0248H18.5527C18.5527 23.0248 21.0591 23.0248 21.0591 20.3627C21.0591 17.7006 18.5527 17.7006 18.5527 17.7006H13.396ZM13.396 32.4271V26.6781H18.9272C19.8203 26.6781 21.6929 27.1312 21.6929 29.85C21.6929 31.8664 19.8491 32.4082 18.9272 32.4271H13.396Z" fill="white"/>
<path fill-rule="evenodd" clip-rule="evenodd" d="M35.4922 20.1361C32.3232 20.1361 27.6274 22.3734 27.6274 28.3207C27.6274 31.942 29.644 36.5902 35.6938 36.5902C40.5337 36.5902 42.7616 33.0974 43.2705 31.3509H38.7187C38.4883 32.1439 37.5952 33.0218 35.6938 33.0218C32.9282 33.0218 31.9487 30.6996 31.8047 29.5384H43.2705V28.3207C43.2705 22.3734 38.6611 20.1361 35.4922 20.1361ZM35.4922 23.5345C32.9109 23.5345 31.9583 25.6302 31.8047 26.6781H38.7187C38.7187 25.6302 38.0734 23.5345 35.4922 23.5345Z" fill="white"/>
<path d="M29.9897 15.2933V18.0404H40.8506V15.2933H29.9897Z" fill="white"/>
</svg>
