<svg width="51" height="52" viewBox="0 0 51 52" fill="none" xmlns="http://www.w3.org/2000/svg">
<path d="M24.3177 51.5002H26.4323C37.9356 51.5002 43.6661 51.5002 47.2186 47.9477C50.75 44.3952 50.75 38.6436 50.75 27.1825V25.0257C50.75 13.6069 50.75 7.85524 47.2186 4.30274C43.6661 0.750244 37.9145 0.750244 26.4323 0.750244H24.3177C12.8144 0.750244 7.08385 0.750244 3.53135 4.30274C0 7.85524 0 13.6069 0 25.068V27.2248C0 38.6436 0 44.3952 3.5525 47.9477C7.105 51.5002 12.8567 51.5002 24.3177 51.5002Z" fill="#0077FF"/>
<path d="M26.832 37.0002C15.6853 37.0002 9.32741 29.5162 9.0625 17.0627H14.646C14.8294 26.2033 18.9458 30.075 22.2062 30.8733V17.0627H27.4637V24.9459C30.6834 24.6067 34.0662 21.0143 35.2073 17.0627H40.4648C40.0348 19.1121 39.1776 21.0526 37.9469 22.7627C36.7162 24.4729 35.1384 25.9159 33.3122 27.0016C35.3506 27.9936 37.1511 29.3976 38.5948 31.1212C40.0385 32.8447 41.0926 34.8485 41.6875 37.0002H35.9002C35.3661 35.1313 34.2807 33.4582 32.78 32.1908C31.2792 30.9234 29.4299 30.1179 27.4637 29.8754V37.0002H26.832Z" fill="white"/>
</svg>
