<svg width="52" height="51" viewBox="0 0 52 51" fill="none" xmlns="http://www.w3.org/2000/svg">
<circle cx="26.0417" cy="25.3752" r="25" fill="white"/>
<path d="M26.0417 50.7502C40.0559 50.7502 51.4167 39.3895 51.4167 25.3752C51.4167 11.361 40.0559 0.000244141 26.0417 0.000244141C12.0274 0.000244141 0.666656 11.361 0.666656 25.3752C0.666656 35.6705 6.79779 44.5337 15.608 48.5128C15.6198 48.2382 15.6331 47.9865 15.6445 47.7707C15.66 47.4764 15.6721 47.2488 15.6721 47.1209C15.6721 46.3584 16.1905 42.5765 16.1905 42.5765L19.3624 29.5536C18.8744 28.7606 18.5085 27.0832 18.5085 25.8022C18.5085 19.8854 21.8023 18.6045 23.8152 18.6045C26.3771 18.6045 26.9566 21.3799 26.9566 23.4233C26.9566 24.5042 26.396 26.196 25.819 27.937C25.2075 29.7822 24.5777 31.6826 24.5777 32.9694C24.5777 35.4703 27.0481 36.7208 28.7561 36.7208C33.2699 36.7208 37.4177 31.048 37.4177 25.3752C37.4177 19.7024 34.7643 12.8402 26.0722 12.8402C17.38 12.8402 13.4762 19.4585 13.4762 24.5213C13.4762 27.9371 14.7571 30.438 15.3976 30.865C15.5806 31.0277 15.8917 31.5299 15.6721 32.2374C15.4525 32.945 15.0519 34.5249 14.8791 35.2263C14.8588 35.389 14.6656 35.6655 14.0556 35.4703C13.2932 35.2263 8.44385 32.1765 8.44385 24.5213C8.44385 16.8661 14.4521 7.96041 26.0722 7.96041C37.6922 7.96041 43.6395 15.7681 43.6395 25.3752C43.6395 34.9823 35.8623 41.1126 29.9455 41.1126C25.2121 41.1126 23.3578 38.998 23.0223 37.9407L21.2228 44.803C20.798 45.9414 20.0054 47.9875 19.028 49.7685C21.2555 50.4078 23.6086 50.7502 26.0417 50.7502Z" fill="#BB0F23"/>
</svg>
