<svg width="122" height="122" viewBox="0 0 122 122" fill="none" xmlns="http://www.w3.org/2000/svg">
<path d="M7.625 46.2583C7.625 32.7354 7.625 25.9739 10.2567 20.8089C12.5717 16.2655 16.2655 12.5717 20.8089 10.2567C25.9739 7.625 32.7354 7.625 46.2583 7.625H75.7417C89.2646 7.625 96.0261 7.625 101.191 10.2567C105.734 12.5717 109.428 16.2655 111.743 20.8089C114.375 25.9739 114.375 32.7354 114.375 46.2583V75.7417C114.375 89.2646 114.375 96.0261 111.743 101.191C109.428 105.734 105.734 109.428 101.191 111.743C96.0261 114.375 89.2646 114.375 75.7417 114.375H46.2583C32.7354 114.375 25.9739 114.375 20.8089 111.743C16.2655 109.428 12.5717 105.734 10.2567 101.191C7.625 96.0261 7.625 89.2646 7.625 75.7417V46.2583Z" fill="#242424"/>
<path d="M37.6167 62.525C22.7481 73.4683 19.825 89.4667 19.825 102.81C20.5028 98.8285 23.6121 89.4921 30.6271 84.0021C41.048 75.8466 60.1104 78.5333 80.9521 64.6854C101.794 50.8375 103.827 32.7875 101.158 18.9354C99.3041 32.3016 92.9763 38.1268 84.2563 43.3354C65.321 54.6458 53.5022 50.8333 37.6167 62.525Z" fill="url(#paint0_linear_25_85)"/>
<path d="M37.6167 62.525C22.7481 73.4683 19.825 89.4667 19.825 102.81C20.5028 98.8285 23.6121 89.4921 30.6271 84.0021C41.048 75.8466 60.1104 78.5333 80.9521 64.6854C101.794 50.8375 103.827 32.7875 101.158 18.9354C99.3041 32.3016 92.9763 38.1268 84.2563 43.3354C65.321 54.6458 53.5022 50.8333 37.6167 62.525Z" fill="url(#paint1_linear_25_85)"/>
<path d="M20.0028 97.3406C20.8187 85.2837 24.7336 72.0068 37.6166 62.5249C45.898 56.4299 53.0742 54.5484 60.7296 52.5413C65.1972 51.37 69.828 50.1558 74.9369 48.0365C73.073 49.8167 64.2161 53.9723 57.5354 56.7489C50.8722 59.5182 43.8472 62.438 37.998 66.3375C26.2624 74.1612 21.4906 87.7733 20.0028 97.3406Z" fill="url(#paint2_linear_25_85)"/>
<path d="M20.0028 97.3406C20.8187 85.2837 24.7336 72.0068 37.6166 62.5249C45.898 56.4299 53.0742 54.5484 60.7296 52.5413C65.1972 51.37 69.828 50.1558 74.9369 48.0365C73.073 49.8167 64.2161 53.9723 57.5354 56.7489C50.8722 59.5182 43.8472 62.438 37.998 66.3375C26.2624 74.1612 21.4906 87.7733 20.0028 97.3406Z" fill="url(#paint3_linear_25_85)"/>
<path d="M92.3301 54.789C90.8687 56.2204 89.2394 57.5019 87.4335 58.5854C79.3002 63.4655 70.6551 65.0392 62.2432 66.5706C55.5399 67.7909 48.9847 68.9842 42.9543 71.8021C29.3573 78.1559 20.97 91.3712 19.8254 102.808C19.8253 102.809 19.8252 102.809 19.8252 102.81C19.8251 102.808 19.8251 102.806 19.825 102.803C19.8251 101.93 19.8377 101.046 19.8653 100.153C19.9346 98.7349 20.0811 97.1641 20.3237 95.489C22.1187 86.0832 27.0009 73.6689 37.998 66.3375C42.6534 63.2339 48.0536 60.7509 53.4234 58.4705C58.1457 56.92 62.4018 55.9551 66.4568 55.0358C72.8399 53.5886 78.7248 52.2544 85.146 48.9271C98.6197 41.9453 102.15 27.598 101.201 19.1584C103.215 29.852 102.401 43.0047 92.3301 54.789Z" fill="url(#paint4_linear_25_85)"/>
<path d="M92.3298 54.7893C90.8685 56.2206 89.2393 57.502 87.4335 58.5855C79.3002 63.4655 70.6551 65.0392 62.2432 66.5706C55.54 67.7909 48.9847 68.9842 42.9544 71.8021C35.1347 75.4562 29.0381 81.3796 25.0513 87.9291C28.569 82.9862 33.928 77.4642 40.5397 75.3605C46.9914 73.3077 53.1453 73.0955 59.5386 72.8752C61.371 72.812 63.2231 72.7482 65.1075 72.6401C70.1861 70.7914 75.5084 68.3024 80.9521 64.6855C85.6443 61.5678 89.3833 58.2371 92.3298 54.7893Z" fill="url(#paint5_linear_25_85)"/>
<path d="M92.3298 54.7893C90.8685 56.2206 89.2393 57.502 87.4335 58.5855C79.3002 63.4655 70.6551 65.0392 62.2432 66.5706C55.54 67.7909 48.9847 68.9842 42.9544 71.8021C35.1347 75.4562 29.0381 81.3796 25.0513 87.9291C28.569 82.9862 33.928 77.4642 40.5397 75.3605C46.9914 73.3077 53.1453 73.0955 59.5386 72.8752C61.371 72.812 63.2231 72.7482 65.1075 72.6401C70.1861 70.7914 75.5084 68.3024 80.9521 64.6855C85.6443 61.5678 89.3833 58.2371 92.3298 54.7893Z" fill="url(#paint6_linear_25_85)"/>
<path d="M101.201 19.1583C101.187 19.0839 101.173 19.0096 101.158 18.9354C99.3041 32.3016 92.9762 38.1268 84.2563 43.3354C80.953 45.3085 77.8663 46.8214 74.9368 48.0366C73.0725 49.8169 64.2159 53.9724 57.5354 56.7489L57.5344 56.7493C56.1748 57.3144 54.8001 57.8857 53.4235 58.4704C58.1458 56.92 62.4018 55.9551 66.4567 55.0358C72.8399 53.5886 78.7248 52.2544 85.146 48.9271C98.6196 41.9453 102.15 27.5979 101.201 19.1583Z" fill="url(#paint7_linear_25_85)"/>
<path d="M101.201 19.1583C101.187 19.0839 101.173 19.0096 101.158 18.9354C99.3041 32.3016 92.9762 38.1268 84.2563 43.3354C80.953 45.3085 77.8663 46.8214 74.9368 48.0366C73.0725 49.8169 64.2159 53.9724 57.5354 56.7489L57.5344 56.7493C56.1748 57.3144 54.8001 57.8857 53.4235 58.4704C58.1458 56.92 62.4018 55.9551 66.4567 55.0358C72.8399 53.5886 78.7248 52.2544 85.146 48.9271C98.6196 41.9453 102.15 27.5979 101.201 19.1583Z" fill="url(#paint8_linear_25_85)"/>
<defs>
<linearGradient id="paint0_linear_25_85" x1="66.3375" y1="69.3875" x2="22.3667" y2="100.904" gradientUnits="userSpaceOnUse">
<stop stop-color="#FE5004"/>
<stop offset="0.602538" stop-color="#FFB915"/>
<stop offset="1" stop-color="#FFFC41"/>
</linearGradient>
<linearGradient id="paint1_linear_25_85" x1="48.9271" y1="72.0563" x2="49.1813" y2="76.6313" gradientUnits="userSpaceOnUse">
<stop stop-color="#FD3E00"/>
<stop offset="1" stop-color="#FD4400" stop-opacity="0"/>
</linearGradient>
<linearGradient id="paint2_linear_25_85" x1="74.9791" y1="45.75" x2="12.9625" y2="100.904" gradientUnits="userSpaceOnUse">
<stop stop-color="#005FC6"/>
<stop offset="0.279756" stop-color="#23A4DF"/>
<stop offset="0.465158" stop-color="#3AC2B7"/>
<stop offset="0.640642" stop-color="#60EC7A"/>
<stop offset="0.818668" stop-color="#CFFDBD"/>
<stop offset="1" stop-color="#D0FCB6"/>
</linearGradient>
<linearGradient id="paint3_linear_25_85" x1="62.3979" y1="56.2979" x2="57.0604" y2="51.4688" gradientUnits="userSpaceOnUse">
<stop stop-color="#0061CB"/>
<stop offset="1" stop-color="#067EEA" stop-opacity="0"/>
</linearGradient>
<linearGradient id="paint4_linear_25_85" x1="101.413" y1="19.0625" x2="19.825" y2="102.683" gradientUnits="userSpaceOnUse">
<stop stop-color="#8E55F1"/>
<stop offset="0.140795" stop-color="#8B48DF"/>
<stop offset="0.274905" stop-color="#E04DD9"/>
<stop offset="0.492309" stop-color="#F496C8"/>
<stop offset="0.633104" stop-color="#FAD2BA"/>
<stop offset="0.856964" stop-color="#FEF7E5"/>
<stop offset="1" stop-color="#FFF5BF"/>
</linearGradient>
<linearGradient id="paint5_linear_25_85" x1="93.4062" y1="54.0105" x2="26.8146" y2="84.1292" gradientUnits="userSpaceOnUse">
<stop stop-color="#F41A73"/>
<stop offset="0.399909" stop-color="#FC50A3"/>
<stop offset="0.584511" stop-color="#FE9485"/>
<stop offset="0.703104" stop-color="#FFAF88"/>
<stop offset="1" stop-color="#FFC385"/>
</linearGradient>
<linearGradient id="paint6_linear_25_85" x1="69.3875" y1="63.2876" x2="69.5146" y2="69.3876" gradientUnits="userSpaceOnUse">
<stop stop-color="#9B0008"/>
<stop offset="1" stop-color="#EA115A" stop-opacity="0"/>
</linearGradient>
<linearGradient id="paint7_linear_25_85" x1="101.413" y1="25.925" x2="41.3021" y2="65.1938" gradientUnits="userSpaceOnUse">
<stop stop-color="#231283"/>
<stop offset="0.362865" stop-color="#7053C6"/>
<stop offset="0.466353" stop-color="#7272DB"/>
<stop offset="0.634311" stop-color="#399EE9"/>
<stop offset="1" stop-color="#00CFFF"/>
</linearGradient>
<linearGradient id="paint8_linear_25_85" x1="86.4167" y1="45.75" x2="89.0854" y2="49.1813" gradientUnits="userSpaceOnUse">
<stop stop-color="#3F259D" stop-opacity="0"/>
<stop offset="1" stop-color="#412DAA"/>
</linearGradient>
</defs>
</svg>
